<svg width="73" height="73" viewBox="0 0 73 73" fill="none" xmlns="http://www.w3.org/2000/svg">
<path opacity="0.3" fill-rule="evenodd" clip-rule="evenodd" d="M37.1054 1.15356C21.5184 1.00467 6.42543 9.38655 1.75424 24.0431C-2.79741 38.3246 5.59991 52.6329 17.8989 61.4169C30.1435 70.1621 46.4573 73.4025 58.7902 64.7786C71.5022 55.8897 75.3717 39.2607 70.4087 24.6989C65.5993 10.5875 52.2091 1.29783 37.1054 1.15356Z" fill="#A8DDDD"/>
<path d="M39.2044 23.6108L39.2044 23.6108C40.9641 26.3338 43.1539 29.7311 44.904 33.0333C45.779 34.6842 46.5424 36.3084 47.0868 37.8102C47.6319 39.3137 47.9539 40.6853 47.9539 41.8335C47.9539 45.2201 46.6334 48.281 44.5213 50.5068C42.4094 52.7325 39.5083 54.1209 36.302 54.1209C33.0957 54.1209 30.1944 52.7325 28.082 50.5531C25.9703 48.3274 24.65 45.2667 24.65 41.8804C24.65 40.7322 24.9721 39.3576 25.5172 37.8497C26.0616 36.3435 26.8251 34.7134 27.7 33.0566C29.45 29.7429 31.6397 26.334 33.3992 23.6113C34.2001 22.3921 34.8695 21.3576 35.4502 20.3692C35.7676 19.8697 36.3852 19.7193 36.8392 20.0383L36.9255 19.9156L36.8392 20.0383C36.9563 20.1206 37.0763 20.2468 37.155 20.3712C37.3561 20.6891 37.5621 21.0172 37.7743 21.3552C38.2191 22.0637 38.6916 22.8161 39.2044 23.6108ZM43.1357 49.0237L43.137 49.0223C44.8539 47.1653 45.9381 44.6419 45.9381 41.8335C45.9381 40.8204 45.6158 39.5738 45.0896 38.2011C44.5624 36.8258 43.8257 35.3117 42.9862 33.76C41.4094 30.8451 39.4641 27.786 37.8505 25.2484C37.7462 25.0844 37.6433 24.9226 37.542 24.7631L37.542 24.7631L37.5407 24.7612C37.3725 24.5051 37.2088 24.2436 37.0488 23.9878C36.8354 23.6468 36.6284 23.316 36.4254 23.0218L36.302 22.8429L36.1785 23.0218C35.9755 23.316 35.7685 23.6468 35.5552 23.9878C35.3951 24.2436 35.2315 24.5051 35.0632 24.7612L35.0623 24.7626L35.0325 24.8091C33.3679 27.4053 31.2865 30.6516 29.6177 33.7425C28.7782 35.2972 28.0415 36.8157 27.5143 38.1946C26.9881 39.571 26.6659 40.8204 26.6659 41.8335C26.6659 44.6403 27.7045 47.1649 29.4683 49.0237L29.4696 49.0251C31.2318 50.8346 33.6299 51.9803 36.302 51.9803C38.9724 51.9803 41.3717 50.8827 43.1357 49.0237Z" fill="#0A4A81" stroke="#86CCE9" stroke-width="0.3"/>
<path d="M38.7939 48.6142L38.7939 48.6142L38.7933 48.6131C38.5229 48.1246 38.7155 47.4622 39.1832 47.1725C40.0551 46.6881 40.785 45.9169 41.2858 45.0532C41.7867 44.1894 42.106 43.1811 42.152 42.1234C42.1926 41.5378 42.6655 41.0985 43.1934 41.1383C43.7323 41.1788 44.163 41.6685 44.1239 42.2457L44.1238 42.2457L44.1236 42.2513C44.0798 43.6823 43.6855 45.0647 42.9874 46.2143L42.9873 46.2142L42.9852 46.2179C42.3294 47.3699 41.3678 48.3827 40.1895 49.0725L40.1895 49.0725L40.1868 49.0742C39.7338 49.3526 39.1139 49.2044 38.7939 48.6142Z" fill="#0A4A81" stroke="#81CAE9" stroke-width="0.3"/>
</svg>
