<svg width="24" height="24" viewBox="0 0 24 24" fill="none" xmlns="http://www.w3.org/2000/svg">
<g clip-path="url(#clip0)">
<path d="M16.0606 3.6143C15.5934 3.4102 15.0492 3.62347 14.8451 4.09066C14.641 4.55784 14.8543 5.102 15.3215 5.3061C18.3249 6.6182 20.3074 9.58879 20.3074 12.9231C20.3074 17.5111 16.5874 21.2308 11.9996 21.2308C7.41121 21.2308 3.69184 17.5114 3.69184 12.9231C3.69184 9.58952 5.67359 6.61894 8.67615 5.30597C9.14325 5.10174 9.35635 4.55749 9.15207 4.0904C8.94784 3.6233 8.4036 3.4102 7.9365 3.61447C4.26772 5.21869 1.8457 8.84927 1.8457 12.923C1.8457 18.531 6.39165 23.077 11.9996 23.077C17.607 23.077 22.1536 18.5307 22.1536 12.923C22.1536 8.84832 19.7306 5.21757 16.0606 3.6143Z" fill="#11A3EB"/>
<path d="M11.9992 11.077C12.509 11.077 12.9223 10.6638 12.9223 10.154V1.84619C12.9223 1.33635 12.509 0.92308 11.9992 0.92308C11.4894 0.92308 11.0762 1.33635 11.0762 1.84615V10.1539C11.0762 10.6637 11.4894 11.077 11.9992 11.077Z" fill="#0A4A81"/>
</g>
<defs>
<clipPath id="clip0">
<rect x="0.922852" y="0.92308" width="22.1538" height="22.1538" fill="white"/>
</clipPath>
</defs>
</svg>
