<svg width="24" height="24" viewBox="0 0 24 24" fill="none" xmlns="http://www.w3.org/2000/svg">
<ellipse cx="3.23054" cy="19.8427" rx="2.30769" ry="2.46034" fill="#11A3EB"/>
<ellipse cx="9.69245" cy="10.0013" rx="2.30769" ry="2.46034" fill="#11A3EB"/>
<ellipse cx="15.2305" cy="15.9061" rx="2.30769" ry="2.46034" fill="#11A3EB"/>
<ellipse cx="20.7696" cy="5.08067" rx="2.30769" ry="2.46034" fill="#11A3EB"/>
<path d="M19.5999 7.58616L19.7665 7.24869L19.4883 6.99522C18.9599 6.51385 18.6183 5.7932 18.6183 4.98155C18.6183 3.49821 19.7435 2.34619 21.0591 2.34619C22.3749 2.34619 23.5 3.4982 23.5 4.98155C23.5 6.46489 22.375 7.6169 21.0592 7.6169C20.8433 7.6169 20.6339 7.58594 20.4335 7.52846L20.0322 7.41332L19.8473 7.78774L17.084 13.3852L16.9174 13.7227L17.1956 13.9761C17.7239 14.4575 18.0656 15.1782 18.0656 15.9898C18.0656 17.4731 16.9404 18.6252 15.6246 18.6252C14.309 18.6252 13.1838 17.4731 13.1838 15.9898C13.1838 15.5153 13.3011 15.0718 13.5041 14.6883L13.6803 14.3552L13.4087 14.094L11.3059 12.0717L10.9984 11.776L10.658 12.0331C10.2594 12.334 9.77925 12.5081 9.26375 12.5081C8.95883 12.5081 8.66696 12.4467 8.39648 12.3351L8.00664 12.1743L7.78236 12.5314L4.64974 17.5199L4.45011 17.8378L4.69965 18.1182C5.1197 18.5902 5.38164 19.2311 5.38164 19.9416C5.38164 21.4249 4.25649 22.5769 2.94082 22.5769C1.62505 22.5769 0.5 21.4249 0.5 19.9416C0.5 18.4582 1.62505 17.3062 2.94078 17.3062C3.24571 17.3062 3.53758 17.3676 3.80805 17.4791L4.1979 17.64L4.42217 17.2828L7.55479 12.2944L7.75442 11.9765L7.50488 11.6961C7.08482 11.2241 6.82289 10.5832 6.82289 9.87278C6.82289 8.38945 7.94804 7.23743 9.26371 7.23743C10.5795 7.23743 11.7046 8.38943 11.7046 9.87278C11.7046 10.3472 11.5874 10.7908 11.3844 11.1742L11.2081 11.5073L11.4797 11.7686L13.5827 13.7909L13.8901 14.0865L14.2306 13.8295C14.6289 13.5286 15.1092 13.3546 15.6246 13.3546C15.8406 13.3546 16.05 13.3855 16.2503 13.443L16.6517 13.5581L16.8365 13.1837L19.5999 7.58616ZM0.793919 19.9416C0.793919 21.1553 1.72687 22.1974 2.94082 22.1974C4.15476 22.1974 5.08772 21.1553 5.08772 19.9416C5.08772 18.7279 4.15476 17.6857 2.94082 17.6857C1.72687 17.6857 0.793919 18.7279 0.793919 19.9416ZM7.11681 9.87283C7.11681 11.0864 8.04978 12.1286 9.26371 12.1286C10.4776 12.1286 11.4107 11.0865 11.4107 9.87283C11.4107 8.6591 10.4776 7.61698 9.26371 7.61698C8.04977 7.61698 7.11681 8.65915 7.11681 9.87283ZM15.6247 13.7341C14.4108 13.7341 13.4778 14.7763 13.4778 15.9898C13.4778 17.2035 14.4107 18.2457 15.6247 18.2457C16.8386 18.2457 17.7717 17.2036 17.7717 15.9898C17.7717 14.7762 16.8386 13.7341 15.6247 13.7341ZM18.9122 4.98155C18.9122 6.19522 19.8452 7.23739 21.0591 7.23739C22.2731 7.23739 23.206 6.19527 23.206 4.98155C23.206 3.76787 22.2731 2.7257 21.0591 2.7257C19.8452 2.7257 18.9122 3.76787 18.9122 4.98155Z" stroke="#0A4A81"/>
</svg>
