<svg width="24" height="24" viewBox="0 0 24 24" fill="none" xmlns="http://www.w3.org/2000/svg">
<path d="M1.42285 12C1.42285 6.15382 6.1532 1.42307 11.9998 1.42307C17.8459 1.42307 22.5767 6.15342 22.5767 12C22.5767 17.8462 17.8463 22.5769 11.9998 22.5769C6.15361 22.5769 1.42285 17.8466 1.42285 12ZM2.15362 12C2.15362 17.4418 6.55758 21.8461 11.9998 21.8461C17.4416 21.8461 21.8459 17.4422 21.8459 12C21.8459 6.55816 17.442 2.15383 11.9998 2.15383C6.55795 2.15383 2.15362 6.55779 2.15362 12Z" fill="#8ABF86" stroke="#11A3EB"/>
<path d="M11.6348 7.36487C11.6348 7.16306 11.7983 6.99948 12.0002 6.99948C12.202 6.99948 12.3655 7.16306 12.3655 7.36487V12.9376C12.3655 13.1395 12.202 13.303 12.0002 13.303C11.7983 13.303 11.6348 13.1395 11.6348 12.9376V7.36487Z" stroke="#0A4A81"/>
<path d="M12.6686 16.031C12.6686 16.4 12.3694 16.6992 12.0003 16.6992C11.6312 16.6992 11.332 16.4 11.332 16.031C11.332 15.6619 11.6312 15.3627 12.0003 15.3627C12.3694 15.3627 12.6686 15.6619 12.6686 16.031Z" fill="#0A4A81" stroke="#0A4A81"/>
</svg>
