<svg width="16" height="15" viewBox="0 0 16 15" fill="none" xmlns="http://www.w3.org/2000/svg">
<path d="M15.085 8.94108V14.4854H11.8693V9.31265C11.8693 8.01384 11.405 7.12688 10.2407 7.12688C9.35216 7.12688 8.82433 7.72402 8.59123 8.30223C8.50657 8.50887 8.48475 8.79581 8.48475 9.08564V14.4851H5.26882C5.26882 14.4851 5.31199 5.72427 5.26882 4.8174H8.48499V6.18741C8.47851 6.1982 8.4694 6.20874 8.46365 6.21905H8.48499V6.18741C8.91234 5.53009 9.67448 4.59039 11.3832 4.59039C13.4988 4.59039 15.085 5.97214 15.085 8.94108ZM1.90468 0.157227C0.804648 0.157227 0.0849609 0.879027 0.0849609 1.82736C0.0849609 2.75556 0.783784 3.49822 1.86248 3.49822H1.88334C3.00496 3.49822 3.70234 2.75556 3.70234 1.82736C3.681 0.879027 3.00496 0.157227 1.90468 0.157227ZM0.276094 14.4854H3.49083V4.8174H0.276094V14.4854Z" fill="#E4EEED"/>
</svg>
