<svg width="152" height="37" viewBox="0 0 152 37" fill="none" xmlns="http://www.w3.org/2000/svg">
<path fill-rule="evenodd" clip-rule="evenodd" d="M12.8559 34.5789C11.9996 30.0539 11.2633 25.3404 10.9546 22.615C10.1667 15.8789 14.7058 13.068 21.3176 12.8622C22.9275 12.8279 22.9958 12.931 21.3346 12.6221C17.4807 11.9537 4.53157 12.5023 1.87674 14.6104C1.00307 15.2962 0.609187 16.2732 1.15723 18.3472C2.69884 24.1062 7.1523 32.3336 12.8559 34.5789Z" fill="#FF8373"/>
<path fill-rule="evenodd" clip-rule="evenodd" d="M37.6753 16.8046C34.5238 19.8039 31.0296 23.1634 28.8883 24.8775C23.0649 29.4542 19.211 26.2658 15.0488 21.5353C14.0209 20.3525 14.0382 20.3008 14.8432 21.6551C17.1728 25.5634 23.2362 35.5563 27.1587 36.8586C28.2033 37.2013 29.231 36.9959 30.6699 35.4017C34.8491 30.7227 38.6859 23.1464 37.6753 16.8046Z" fill="#FDE64B"/>
<path fill-rule="evenodd" clip-rule="evenodd" d="M12.4619 2.95523C16.6584 4.51492 21.2146 6.22904 23.7668 7.46318C26.3187 8.69733 27.2097 9.60559 27.9633 10.7026C28.717 11.8167 29.3336 13.1192 29.0766 15.2276C28.8196 17.336 27.689 20.2669 27.0897 21.7412C26.4904 23.2151 26.4387 23.2322 27.3123 21.861C30.1899 17.3874 32.8105 13.2223 34.6604 8.14897C35.3627 6.22904 35.688 4.85781 35.5167 3.74374C34.6777 -1.91263 17.0694 -0.301244 12.4619 2.95523Z" fill="#34DDDD"/>
<path fill-rule="evenodd" clip-rule="evenodd" d="M135.308 18.5C135.308 20.0597 135.034 21.5167 134.486 22.8539C133.92 24.1907 133.098 25.4249 131.985 26.539C130.872 27.636 129.655 28.4756 128.302 29.0243C126.966 29.5727 125.528 29.8472 123.952 29.8472C122.376 29.8472 120.937 29.5727 119.584 29.0243C118.248 28.4756 117.032 27.636 115.919 26.539C114.805 25.4249 113.983 24.2078 113.418 22.8709C112.869 21.5167 112.596 20.0771 112.596 18.5C112.596 16.9403 112.869 15.4834 113.418 14.1462C113.983 12.8093 114.805 11.5925 115.919 10.4784C117.032 9.36437 118.265 8.54183 119.601 7.97579C120.937 7.42743 122.393 7.15292 123.952 7.15292C125.51 7.15292 126.966 7.42743 128.302 7.97579C129.638 8.54183 130.872 9.36437 131.985 10.4784C132.533 11.0438 133.03 11.6269 133.441 12.2439C133.852 12.8437 134.211 13.4777 134.486 14.1462C134.76 14.8149 134.965 15.5004 135.102 16.2202C135.239 16.9574 135.308 17.7115 135.308 18.5ZM123.952 10.4611C122.821 10.4611 121.794 10.6669 120.851 11.0611C120.389 11.2499 119.944 11.5068 119.515 11.798C119.07 12.0895 118.659 12.4324 118.265 12.8266C117.871 13.2209 117.512 13.6492 117.22 14.0778C116.929 14.5064 116.689 14.952 116.484 15.4147C116.295 15.8776 116.158 16.3746 116.056 16.8716C115.953 17.386 115.919 17.9347 115.919 18.5C115.919 20.7285 116.689 22.6137 118.265 24.1907C119.053 24.9793 119.909 25.562 120.868 25.9562C121.81 26.3502 122.838 26.539 123.952 26.539C125.065 26.539 126.093 26.3502 127.052 25.9562C127.994 25.562 128.85 24.9793 129.638 24.1907C130.426 23.4019 131.008 22.545 131.403 21.5854C131.796 20.6428 132.002 19.6141 132.002 18.5C132.002 17.386 131.796 16.3746 131.403 15.432C131.008 14.4894 130.426 13.6148 129.638 12.8266C128.85 12.0381 127.994 11.4554 127.035 11.0611C126.093 10.6669 125.065 10.4611 123.952 10.4611Z" fill="#89E894"/>
<path fill-rule="evenodd" clip-rule="evenodd" d="M110.248 26.11C110.248 26.3332 110.213 26.539 110.111 26.7444C110.025 26.9502 109.905 27.1386 109.734 27.3101L109.716 27.3274C108.655 28.167 107.541 28.8014 106.342 29.2297C105.143 29.6411 103.893 29.8472 102.574 29.8472C100.998 29.8472 99.5425 29.5727 98.2062 29.0243C96.8702 28.4756 95.6369 27.636 94.541 26.539C93.4274 25.4249 92.5881 24.2078 92.0401 22.8709C91.4918 21.5167 91.2178 20.0771 91.2178 18.5C91.2178 16.9403 91.4918 15.4834 92.0401 14.1462C92.5881 12.8093 93.4274 11.5925 94.541 10.4784C95.6369 9.36437 96.8702 8.54183 98.2062 7.97579C99.5425 7.42743 100.998 7.15292 102.557 7.15292C103.91 7.15292 105.178 7.37573 106.394 7.82169C107.61 8.24997 108.757 8.91841 109.836 9.80966H109.853C110.008 9.9641 110.127 10.1355 110.196 10.324C110.282 10.5298 110.299 10.7356 110.299 10.9754C110.299 11.0955 110.299 11.2152 110.282 11.3183C110.248 11.4381 110.23 11.5411 110.179 11.6439C110.145 11.7469 110.093 11.8493 110.025 11.9351C109.974 12.0208 109.905 12.1068 109.819 12.1752C109.751 12.2609 109.665 12.3296 109.562 12.381C109.477 12.4497 109.391 12.5008 109.288 12.5351L109.271 12.5525C109.168 12.5865 109.066 12.6208 108.963 12.6382C108.843 12.6552 108.74 12.6722 108.62 12.6722C108.415 12.6722 108.209 12.6382 108.003 12.5525C107.815 12.4667 107.644 12.364 107.473 12.2096C107.13 11.9351 106.771 11.6956 106.394 11.4894C106.017 11.284 105.623 11.1125 105.212 10.9581C104.801 10.8213 104.373 10.7183 103.927 10.6325C103.499 10.5642 103.036 10.5298 102.574 10.5298C101.461 10.5298 100.433 10.7183 99.5081 11.1125C98.5658 11.5068 97.6925 12.0895 96.9046 12.878C96.1336 13.6492 95.5513 14.5064 95.1746 15.432C94.7806 16.3746 94.592 17.403 94.592 18.5C94.592 20.7111 95.3629 22.5963 96.9046 24.139C97.6925 24.9106 98.5488 25.5106 99.4908 25.8872C100.433 26.2818 101.461 26.4702 102.557 26.4702C103.396 26.4702 104.167 26.3676 104.904 26.1447C105.589 25.9562 106.257 25.6477 106.873 25.2532V21.2595H103.225C103.002 21.2595 102.78 21.2255 102.574 21.1398C102.386 21.0537 102.197 20.934 102.026 20.7799C101.872 20.6081 101.752 20.437 101.666 20.2312C101.598 20.0254 101.546 19.8025 101.546 19.5797C101.546 19.46 101.563 19.3569 101.581 19.2372C101.598 19.1341 101.632 19.0144 101.666 18.9113C101.718 18.8086 101.769 18.7055 101.837 18.6198C101.889 18.5344 101.957 18.4487 102.026 18.3629C102.112 18.2946 102.197 18.2258 102.283 18.1575C102.368 18.1058 102.471 18.0544 102.574 18.003C102.677 17.9687 102.78 17.9347 102.882 17.9173C103.002 17.9 103.105 17.883 103.225 17.883H108.569C108.689 17.883 108.792 17.9 108.911 17.9173C109.014 17.9347 109.117 17.9687 109.22 18.0204C109.322 18.0544 109.408 18.1228 109.494 18.1741C109.597 18.2429 109.682 18.3116 109.751 18.3803C109.819 18.4487 109.888 18.5514 109.956 18.6371C110.008 18.7228 110.076 18.8086 110.111 18.9113C110.162 19.0144 110.196 19.1341 110.213 19.2372C110.248 19.3399 110.248 19.46 110.248 19.5627V26.11Z" fill="#565757"/>
<path fill-rule="evenodd" clip-rule="evenodd" d="M89.2493 26.4702C89.472 26.4702 89.6946 26.5216 89.8999 26.6073C90.0883 26.6761 90.2769 26.7958 90.4483 26.9673C90.6022 27.1217 90.7222 27.3101 90.8079 27.5156C90.8932 27.7214 90.9279 27.9272 90.9279 28.167C90.9279 28.3898 90.8932 28.6127 90.8079 28.8185C90.7222 29.0243 90.6022 29.1953 90.4483 29.3668C90.2769 29.5213 90.0883 29.6584 89.8999 29.7267C89.6946 29.8124 89.472 29.8472 89.2493 29.8472H76.3688C76.2318 29.8472 76.1288 29.8472 76.0091 29.8297C75.9061 29.7955 75.8035 29.7784 75.7005 29.7267H75.6835C75.5808 29.6927 75.4952 29.6411 75.4095 29.5727C75.3068 29.5213 75.2382 29.4525 75.1525 29.3668C75.0842 29.2984 75.0155 29.2128 74.9472 29.1271C74.8955 29.0416 74.8442 28.9385 74.7929 28.8354C74.7585 28.7328 74.7245 28.63 74.7072 28.51C74.6729 28.4072 74.6729 28.287 74.6729 28.167V8.83302C74.6729 8.71294 74.6729 8.61021 74.7072 8.49013C74.7245 8.3874 74.7585 8.28433 74.7929 8.1816C74.8442 8.07886 74.8955 7.97579 74.9472 7.89007C75.0155 7.80468 75.0842 7.70161 75.1525 7.63323C75.2382 7.56452 75.3068 7.49615 75.4095 7.42743C75.4952 7.37573 75.5808 7.30736 75.6835 7.27333H75.7005C75.7865 7.23864 75.9061 7.20462 76.0091 7.18761C76.1288 7.15292 76.2318 7.15292 76.3688 7.15292H89.2493C89.472 7.15292 89.6946 7.18761 89.8999 7.27333C90.0883 7.35872 90.2769 7.4788 90.4483 7.63323C90.6022 7.80468 90.7222 7.99314 90.8079 8.1816C90.8932 8.3874 90.9279 8.61021 90.9279 8.83302C90.9279 9.07285 90.8932 9.29566 90.8079 9.48445C90.7222 9.68992 90.6022 9.87837 90.4483 10.0328C90.2769 10.2043 90.0883 10.324 89.8999 10.4097C89.6946 10.4954 89.472 10.5298 89.2493 10.5298H78.0471V16.7859H86.0291C86.2687 16.7859 86.4744 16.8376 86.6801 16.923C86.8684 17.0087 87.0571 17.1288 87.228 17.2832C87.382 17.4543 87.5024 17.6431 87.5877 17.8316C87.6734 18.0371 87.7077 18.2599 87.7077 18.4827C87.7077 18.7228 87.6734 18.9457 87.5877 19.1341C87.5024 19.3399 87.382 19.5284 87.228 19.6828C87.0571 19.8542 86.8684 19.974 86.6801 20.0597C86.4744 20.1458 86.2687 20.1798 86.0291 20.1798H78.0471V26.4702H89.2493Z" fill="#565757"/>
<path fill-rule="evenodd" clip-rule="evenodd" d="M50.4698 8.28433L54.255 21.8939L58.0062 8.30167C58.0402 8.13023 58.1258 7.97579 58.2118 7.8387C58.3145 7.70161 58.4515 7.58153 58.5885 7.4788C58.7425 7.35872 58.8968 7.27333 59.0681 7.22163C59.2565 7.17027 59.4278 7.15292 59.6334 7.15292C59.7874 7.15292 59.9588 7.17027 60.1127 7.22163C60.2841 7.27333 60.4384 7.34171 60.5754 7.44445C60.7294 7.53017 60.8664 7.66726 60.9694 7.80468C61.0721 7.94177 61.1577 8.09554 61.209 8.28433H61.2264L64.9946 21.8939L68.7628 8.28433H68.7798C68.8141 8.16458 68.8654 8.0445 68.9341 7.94177C69.0024 7.8387 69.0881 7.73597 69.1737 7.63323C69.3451 7.4788 69.5164 7.35872 69.7217 7.27333C69.9104 7.18761 70.133 7.15292 70.3557 7.15292C70.5953 7.15292 70.818 7.18761 71.0063 7.27333C71.212 7.35872 71.3833 7.4788 71.5546 7.63323C71.7086 7.80468 71.8286 7.99314 71.9143 8.1816C72 8.3874 72.0343 8.61021 72.0343 8.83302C72.0343 8.93576 72.0173 9.03882 72 9.15857C71.983 9.26163 71.9486 9.36437 71.9313 9.4671L66.6728 28.51C66.6045 28.7157 66.5188 28.8872 66.3992 29.0583C66.2962 29.2128 66.1762 29.3668 66.0222 29.4869C65.8852 29.6069 65.7139 29.6927 65.5425 29.7614C65.3712 29.8297 65.1829 29.8472 64.9946 29.8472C64.7546 29.8472 64.5319 29.8124 64.3263 29.7267C64.1379 29.6411 63.9496 29.5038 63.7956 29.3328C63.6926 29.2297 63.6069 29.11 63.5213 28.9725C63.4356 28.8354 63.3673 28.6984 63.316 28.5442V28.5273L59.6334 15.1748L55.9336 28.51C55.8652 28.7157 55.7793 28.8872 55.6596 29.0583C55.5566 29.2128 55.4196 29.3668 55.2826 29.4869C55.1286 29.6069 54.9743 29.6927 54.803 29.7614C54.6316 29.8297 54.4433 29.8472 54.255 29.8472C54.0153 29.8472 53.7923 29.8124 53.587 29.7267C53.3987 29.6411 53.227 29.5213 53.056 29.3498C52.9534 29.247 52.8674 29.1271 52.782 28.9898C52.6964 28.8528 52.6277 28.7157 52.5764 28.5442V28.5273L47.3009 9.44976C47.2666 9.33002 47.2322 9.22695 47.2152 9.12421C47.2152 9.02148 47.1982 8.91841 47.1982 8.83302C47.1982 8.61021 47.2492 8.3874 47.3179 8.1816C47.4036 7.99314 47.5406 7.80468 47.6949 7.63323C47.8659 7.4788 48.0375 7.35872 48.2429 7.27333C48.4485 7.18761 48.6539 7.15292 48.8938 7.15292C49.1165 7.15292 49.3222 7.18761 49.5275 7.27333C49.7331 7.35872 49.9045 7.4788 50.0755 7.63323V7.65025C50.1785 7.73597 50.2471 7.8387 50.3155 7.94177C50.3668 8.0445 50.4351 8.14724 50.4698 8.26732V8.28433Z" fill="#565757"/>
<path fill-rule="evenodd" clip-rule="evenodd" d="M149.558 10.5298H144.249V28.167C144.249 28.4072 144.215 28.6127 144.129 28.8185C144.06 29.0243 143.923 29.1953 143.769 29.3668C143.598 29.5213 143.41 29.6584 143.221 29.7267C143.016 29.8124 142.793 29.8472 142.57 29.8472C142.348 29.8472 142.125 29.8124 141.919 29.7267C141.714 29.6584 141.525 29.5213 141.371 29.3668C141.2 29.1953 141.08 29.0243 141.012 28.8185C140.909 28.6127 140.875 28.4072 140.875 28.167V10.5298H135.582C135.359 10.5298 135.137 10.4954 134.948 10.4097C134.743 10.324 134.554 10.2043 134.383 10.0328C134.229 9.87837 134.109 9.68992 134.023 9.48445C133.938 9.29566 133.903 9.07285 133.903 8.83302C133.903 8.61021 133.938 8.3874 134.023 8.1816C134.109 7.99314 134.229 7.80468 134.383 7.63323C134.554 7.4788 134.743 7.35872 134.948 7.27333C135.137 7.18761 135.359 7.15292 135.582 7.15292H149.558C149.781 7.15292 150.004 7.18761 150.192 7.27333C150.398 7.35872 150.586 7.4788 150.74 7.63323C150.912 7.80468 151.032 7.99314 151.117 8.1816C151.203 8.3874 151.237 8.61021 151.237 8.83302C151.237 9.07285 151.203 9.27865 151.117 9.48445C151.032 9.68992 150.912 9.87837 150.74 10.0328C150.586 10.2043 150.398 10.324 150.192 10.4097C150.004 10.4954 149.781 10.5298 149.558 10.5298Z" fill="#565757"/>
</svg>
