<svg width="17" height="14" viewBox="0 0 17 14" fill="none" xmlns="http://www.w3.org/2000/svg">
<path fill-rule="evenodd" clip-rule="evenodd" d="M1.83114 5.36603L0.576669 5.00796C0.585237 6.78135 1.65848 7.66586 3.00465 8.38947L1.67905 8.50443C1.95734 9.12511 2.38271 9.66528 2.91679 10.0762C3.45086 10.4871 4.07683 10.7558 4.73814 10.858C4.05413 11.3097 3.32081 11.6785 2.55307 11.9568C1.75875 12.1523 0.952466 12.2931 0.139648 12.3782C2.13466 13.5284 4.45491 13.9483 6.71582 13.5684C8.90215 13.1312 10.8768 11.9456 12.3132 10.2076C13.7496 8.46972 14.5618 6.28357 14.6155 4.01064C14.6349 3.72839 14.7527 3.46255 14.9475 3.26124C15.3961 2.82664 15.9051 2.45671 16.3896 2.06058L16.1754 1.81534L14.5473 2.25256L15.7932 0.5692C15.3746 0.625946 14.968 0.752269 14.5893 0.943072C14.3665 1.06767 14.1109 1.11723 13.8588 1.08472C13.6067 1.05222 13.3712 0.939276 13.1857 0.762034C12.7041 0.364225 12.1171 0.122163 11.4998 0.0668598C10.8825 0.0115562 10.2631 0.145545 9.72093 0.451621C9.14791 0.716999 8.66425 1.14887 8.3304 1.69322C7.99656 2.23757 7.82733 2.87025 7.84391 3.5122C7.84048 3.78153 7.84391 4.05084 7.84391 4.36957C5.17315 4.12288 2.70122 2.82554 0.951138 0.752C0.229212 2.53369 0.50211 3.84099 1.83114 5.36603Z" fill="#E4EEED"/>
</svg>
